PathFileType	4	(X/Y/Z)	C:\Users\dbl\Desktop\20210112(1)\20210112\bx_y_5_1802.trc
DataRate	CameraRate	NumFrames	NumMarkers	Units	OrigDataRate	OrigDataStartFrame	OrigNumFrames
50.00	50.00	       7	43	mm	50.00	419	       478
Frame#	Time	Top.Head			R.Acromium			L.Acromium			Sternum			R.ASIS			L.ASIS			V.Sacral			R.Thigh.Upper			R.Thigh.Front			R.Thigh.Rear			R.Knee.Lat			R.Knee.Med			R.Shank.Upper			R.Shank.Front			R.Shank.Rear			R.Ankle.Lat			R.Midfoot.Lat			R.Toe.Lat			R.Toe.Tip			R.Toe.Med			R.Ankle.Med			R.Midfoot.Sup			R.Heel			L.Thigh.Upper			L.Thigh.Front			L.Thigh.Rear			L.Knee.Lat			L.Knee.Med			L.Shank.Upper			L.Shank.Front			L.Shank.Rear			L.Ankle.Lat			L.Midfoot.Lat			L.Toe.Lat			L.Toe.Tip			L.Toe.Med			L.Ankle.Med			L.Midfoot.Sup			L.Heel			origin1 front left			origin2 front right			origin 3 back right			origin 4 back leftt			
		X1	Y1	Z1	X2	Y2	Z2	X3	Y3	Z3	X4	Y4	Z4	X5	Y5	Z5	X6	Y6	Z6	X7	Y7	Z7	X8	Y8	Z8	X9	Y9	Z9	X10	Y10	Z10	X11	Y11	Z11	X12	Y12	Z12	X13	Y13	Z13	X14	Y14	Z14	X15	Y15	Z15	X16	Y16	Z16	X17	Y17	Z17	X18	Y18	Z18	X19	Y19	Z19	X20	Y20	Z20	X21	Y21	Z21	X22	Y22	Z22	X23	Y23	Z23	X24	Y24	Z24	X25	Y25	Z25	X26	Y26	Z26	X27	Y27	Z27	X28	Y28	Z28	X29	Y29	Z29	X30	Y30	Z30	X31	Y31	Z31	X32	Y32	Z32	X33	Y33	Z33	X34	Y34	Z34	X35	Y35	Z35	X36	Y36	Z36	X37	Y37	Z37	X38	Y38	Z38	X39	Y39	Z39	X40	Y40	Z40	X41	Y41	Z41	X42	Y42	Z42	X43	Y43	Z43	

419	8.360	-718.62720	105.64905	1848.11304	-683.93524	-75.28608	1559.58704	-656.68011	283.08224	1548.96912	-588.50531	91.34539	1439.44849	-607.80811	-28.47715	1060.06116	-576.08972	197.96886	1073.51685	-792.71893	104.19117	1039.38208	-654.79407	-77.74155	860.73822	-590.26514	-17.89163	810.84698	-684.06549	-55.14685	713.32196	-695.26965	-31.77917	617.22864	-676.67700	77.49005	584.13507	-708.89001	-25.58331	569.98248	-659.18359	13.27749	521.50659	-761.84509	-31.06925	492.61917	-767.11035	-2.72666	207.73236	-667.20123	-69.96385	160.42360	-625.82397	-81.73763	157.42908	-560.50531	-44.03753	161.66078	-601.97583	15.46494	167.82088	-711.25079	76.63363	216.25511	-672.35535	52.82343	159.42023	-790.72968	60.41806	176.20157	-617.90137	265.72662	882.20032	-569.76263	195.67784	831.62061	-663.80829	262.78180	754.21918	-691.97406	240.83102	640.07166	-661.60345	132.60266	580.54468	-696.53101	234.66125	579.85645	-647.09167	192.96913	533.03888	-744.37537	244.59389	507.17117	-768.87341	220.45569	205.93741	-666.03473	297.99094	161.59074	-629.77826	306.82098	162.07735	-561.48682	262.60168	165.50821	-594.09003	224.18246	172.34369	-707.43732	150.09262	214.11732	-674.04498	173.99661	155.33669	-793.96857	170.45302	185.13229	-528.18616	304.40762	146.41910	-517.77234	-72.37347	142.36331	-876.00708	-78.88449	141.18591	-882.62268	296.14774	144.58606	
420	8.380	-719.76996	106.11519	1848.05847	-684.72272	-74.84534	1559.67285	-657.71808	283.50162	1548.73987	-589.26276	91.73586	1439.50952	-607.84338	-28.32916	1059.93445	-576.56433	198.15913	1073.44678	-793.03577	103.97587	1039.25073	-654.75989	-77.65390	860.74335	-590.34576	-17.74440	810.93671	-684.11157	-55.27180	713.41888	-695.21582	-31.99813	617.43079	-677.07745	77.61996	584.31055	-708.85541	-25.70349	570.21417	-659.48383	13.26834	521.48792	-762.09363	-31.07307	492.60568	-767.06897	-2.67152	207.60406	-667.22003	-69.96755	160.41718	-625.88367	-81.76013	157.45001	-560.54169	-44.04978	161.76147	-601.98425	15.45062	167.85956	-711.30426	76.60450	216.20784	-672.36749	52.84728	159.41469	-790.76465	60.40843	176.21724	-618.66669	265.94440	882.11102	-570.53180	196.01236	831.49182	-664.62897	262.65018	753.74500	-693.35455	240.87062	640.15485	-662.81226	132.65126	580.77802	-697.88593	234.77142	579.95837	-648.35913	193.12897	533.23981	-745.69177	244.69046	507.29605	-769.02075	220.47849	205.91649	-666.06677	298.01932	161.57874	-629.80145	306.86105	162.06009	-561.51099	262.61960	165.54533	-594.13983	224.21686	172.40652	-707.49915	150.18785	214.31276	-674.04657	174.05367	155.36496	-794.00366	170.46945	185.08516	-528.20038	304.42816	146.44533	-517.74420	-72.34962	142.36142	-876.00531	-78.87022	141.20076	-882.64587	296.16592	144.57339	
421	8.400	-720.73743	106.65458	1848.05090	-685.34521	-74.45431	1559.74231	-658.67114	283.86581	1548.53613	-590.01746	92.19177	1439.57495	-607.82642	-28.23775	1059.82690	-577.08246	198.31921	1073.35339	-793.42096	103.69984	1039.15356	-654.76617	-77.62137	860.75031	-590.49567	-17.64116	811.02313	-684.39404	-55.34214	713.56201	-695.31287	-32.20400	617.60999	-677.63104	77.73714	584.47375	-708.97937	-25.92438	570.47711	-659.93140	13.23348	521.45215	-762.53510	-31.07316	492.54773	-767.05157	-2.64805	207.52646	-667.23590	-69.99417	160.41270	-625.92157	-81.75178	157.48508	-560.58502	-44.06867	161.88344	-601.99182	15.42884	167.89174	-711.43433	76.52079	216.21237	-672.38104	52.87215	159.43549	-790.78723	60.40088	176.23323	-619.55206	266.08121	881.96710	-571.43146	196.27888	831.32220	-665.52667	262.42111	753.23138	-694.88190	240.90492	640.28113	-664.28754	132.72581	581.02631	-699.38574	234.89030	580.07477	-649.81293	193.22606	533.50470	-747.11737	244.87608	507.38663	-769.18054	220.52917	205.90500	-666.11206	298.08582	161.52522	-629.84875	306.92450	162.02589	-561.57385	262.66824	165.61990	-594.20026	224.29456	172.45274	-707.58289	150.32178	214.50330	-674.04822	174.13799	155.41927	-794.04620	170.49384	185.01059	-528.20367	304.42853	146.43608	-517.72192	-72.34398	142.37491	-876.00586	-78.85729	141.21283	-882.64398	296.15628	144.56390	
422	8.420	-721.54858	107.22603	1848.08093	-685.79517	-74.09986	1559.82861	-659.57007	284.18286	1548.34692	-590.67554	92.61560	1439.63086	-607.93518	-28.13899	1059.72229	-577.66016	198.47336	1073.22205	-793.87689	103.42545	1039.11670	-654.88330	-77.67022	860.78503	-590.75098	-17.58658	811.10608	-684.87524	-55.37747	713.70288	-695.64636	-32.35429	617.73438	-678.28564	77.77227	584.57678	-709.42719	-26.18052	570.67377	-660.49176	13.18685	521.41815	-763.09747	-31.12650	492.47009	-767.10162	-2.65736	207.50301	-667.25568	-70.03458	160.39977	-625.93085	-81.74303	157.50316	-560.63464	-44.08261	161.98738	-602.00848	15.41233	167.92198	-711.62128	76.39802	216.26392	-672.40723	52.90538	159.50227	-790.80524	60.40458	176.24860	-620.51215	266.14755	881.83563	-572.38232	196.45886	831.11591	-666.50616	262.09451	752.68713	-696.50519	240.98438	640.46515	-665.96704	132.81999	581.22003	-701.01715	235.03276	580.20148	-651.38806	193.33145	533.81415	-748.61890	245.10477	507.42618	-769.32184	220.59438	205.89273	-666.16364	298.17511	161.44009	-629.89954	307.00262	161.98344	-561.66205	262.73959	165.72801	-594.26215	224.41499	172.47279	-707.70276	150.44719	214.63824	-674.03754	174.21091	155.50610	-794.08301	170.52690	184.91827	-528.19824	304.40234	146.41463	-517.71783	-72.38216	142.39262	-876.01605	-78.85273	141.21069	-882.60510	296.11487	144.56133	
423	8.440	-722.22882	107.77877	1848.12427	-686.09229	-73.78400	1559.95483	-660.46808	284.45355	1548.14856	-591.14868	92.90998	1439.68420	-608.25378	-28.00418	1059.64026	-578.31213	198.61366	1073.03857	-794.39276	103.20025	1039.13757	-655.16888	-77.84781	860.89301	-591.16412	-17.54146	811.17633	-685.44946	-55.38213	713.75543	-696.29303	-32.38998	617.76971	-679.02600	77.69717	584.61139	-710.20837	-26.37210	570.72601	-661.11279	13.14036	521.40710	-763.65833	-31.27820	492.40781	-767.24414	-2.68758	207.48187	-667.27679	-70.07627	160.38118	-625.91968	-81.76131	157.49455	-560.69421	-44.08104	162.02623	-602.03351	15.39904	167.95624	-711.81549	76.28578	216.33287	-672.44440	52.94557	159.59618	-790.81439	60.40733	176.23984	-621.45508	266.19699	881.74957	-573.37488	196.55014	830.84528	-667.56818	261.71759	752.15295	-698.18018	241.12637	640.68604	-667.75330	132.93698	581.33069	-702.73676	235.21408	580.33386	-653.02203	193.49475	534.13788	-750.16321	245.33517	507.44138	-769.44250	220.65215	205.86571	-666.21167	298.25601	161.35367	-629.92780	307.06503	161.95316	-561.75433	262.81827	165.84444	-594.32300	224.54893	172.49287	-707.87854	150.53665	214.70424	-674.02521	174.26039	155.60916	-794.11670	170.56058	184.82849	-528.18646	304.37192	146.42108	-517.70081	-72.44581	142.41951	-876.03125	-78.86265	141.19109	-882.55524	296.07318	144.56973	
424	8.460	-722.80518	108.29382	1848.16882	-686.25635	-73.52441	1560.10645	-661.40631	284.68463	1547.92981	-591.42145	93.05876	1439.75061	-608.73309	-27.85950	1059.60132	-578.99780	198.69382	1072.81763	-794.96436	103.03313	1039.20862	-655.63672	-78.13353	861.07538	-591.76147	-17.47505	811.21082	-686.07275	-55.38765	713.70343	-697.24194	-32.29148	617.67487	-679.86676	77.52678	584.58936	-711.16431	-26.45724	570.63049	-661.77203	13.08208	521.43658	-764.17609	-31.51927	492.38217	-767.47980	-2.73397	207.39529	-667.29846	-70.10976	160.36224	-625.89722	-81.79789	157.46298	-560.77216	-44.05848	161.98953	-602.06152	15.37935	167.98886	-711.98425	76.21873	216.39195	-672.48322	52.98862	159.67390	-790.81201	60.38456	176.18054	-622.34192	266.25006	881.69702	-574.43652	196.55461	830.48022	-668.70160	261.40463	751.71301	-699.84930	241.28403	640.87683	-669.58044	133.09573	581.35022	-704.46924	235.42860	580.47083	-654.66406	193.69690	534.44385	-751.68481	245.56674	507.45612	-769.56128	220.68770	205.82266	-666.25024	298.30875	161.28287	-629.93091	307.09174	161.95361	-561.84033	262.88760	165.94202	-594.37903	224.67233	172.53903	-708.10352	150.59830	214.73979	-674.02997	174.30089	155.69391	-794.15942	170.59093	184.75136	-528.17352	304.34799	146.45242	-517.63068	-72.46526	142.48903	-876.04474	-78.88227	141.16388	-882.53186	296.06570	144.58714	
425	8.480	-723.29840	108.75438	1848.22290	-686.28912	-73.33373	1560.25952	-662.38934	284.88858	1547.70837	-591.55713	93.12741	1439.83008	-609.27271	-27.76297	1059.59070	-579.63544	198.68626	1072.59827	-795.58276	102.88915	1039.36230	-656.25836	-78.40164	861.24323	-592.51501	-17.41420	811.19049	-686.79602	-55.43889	713.60352	-698.34412	-32.12025	617.44885	-680.79211	77.32548	584.54913	-712.10608	-26.47770	570.44586	-662.46167	12.99810	521.52307	-764.71399	-31.77191	492.36572	-767.78491	-2.79636	207.20702	-667.32544	-70.12984	160.33978	-625.87964	-81.82637	157.42770	-560.87262	-44.02800	161.93774	-602.09827	15.35385	168.00919	-712.11926	76.18618	216.44157	-672.51770	53.03485	159.71196	-790.81500	60.32313	176.07813	-623.21844	266.27698	881.65271	-575.54901	196.48177	830.05042	-669.87750	261.29446	751.46149	-701.46088	241.44249	640.99384	-671.42627	133.27953	581.30695	-706.14117	235.66653	580.61829	-656.25568	193.87067	534.71484	-753.12537	245.84961	507.48071	-769.68555	220.71005	205.77570	-666.28503	298.33694	161.22310	-629.92859	307.09485	161.98218	-561.91956	262.93698	166.00748	-594.42310	224.77728	172.60435	-708.34906	150.63991	214.80170	-674.05084	174.34100	155.73862	-794.21332	170.62251	184.68707	-528.16528	304.33258	146.47778	-517.51648	-72.38413	142.59497	-876.05377	-78.89848	141.14470	-882.54346	296.10220	144.61122	
